<svg id="Layer_1" data-name="Layer 1" xmlns="http://www.w3.org/2000/svg" viewBox="0 0 978.53 624.35"><defs><style>.cls-1{fill:#0847a6;}.cls-2{fill:#0a59cf;}.cls-3{fill:#073e91;}.cls-4{fill:#031730;}.cls-5{fill:none;stroke:#042557;stroke-miterlimit:10;stroke-width:10px;}</style></defs><path class="cls-1" d="M1189.75,630c29.85,30.87,68.76-.16,122.88,23.83,69.43,30.77,68,109.64,105.81,109.24,37.57-.4,84.9-78.64,62.92-129.62-14.71-34.13-56.88-47.67-79.56-54.95-42.36-13.6-54.81-.24-98-18.28-24.78-10.35-30.55-18.86-56.68-25.12-19.5-4.66-47.39-11.34-63.46,2.51C1162.76,555.56,1165.64,605,1189.75,630Z" transform="translate(-510.73 -187.82)"/><path class="cls-2" d="M1303.42,580.79c40.07,18.26,53.62.41,88.34,12.9,60.75,21.85,76.15,96.93,90.67,91.59,8.8-3.24,9.81-33.28-1.17-56.79-16.14-34.57-54.42-46.88-79.56-55-42.36-13.6-54.81-.23-98-18.27-24.78-10.35-30.54-18.87-56.68-25.12-33.08-7.92-63.41-.58-63.46,2.5,0,2.85,25.68,0,59.1,12.46C1273.81,556.73,1276.84,568.67,1303.42,580.79Z" transform="translate(-510.73 -187.82)"/><path class="cls-2" d="M613.1,537.48c-1.88-.62-19.92-6.75-24.8-19.61-6.24-16.48,13.94-31.21,7.28-40.06-4-5.36-16-6.07-23.62-1.69-12.93,7.43-5.22,24.82-18.2,34.79-11.06,8.49-22,0-33,9.48-9.72,8.4-9.93,22.59-10,25.68-.21,14.2,7.61,17.2,8.32,34,.55,12.85-3.87,15.13-.95,20.57,6,11.28,32.82,16.06,52.78,7.56,18.74-8,24.19-24.53,41.56-23.92,6.73.24,8.73,2.82,13.35,1.15,13.44-4.85,18.65-34.76,8-43.75C628.87,537.47,624.47,541.2,613.1,537.48Z" transform="translate(-510.73 -187.82)"/><path class="cls-2" d="M907.31,509.81c21.62,31.14,48.23,80.44,44,139-3.86,53.36-30.14,70.44-21,98,24.86,75,265.8,88.34,293,25,14.34-33.39-41-64.07-36-128,4.18-53,47.23-94.48,90-124" transform="translate(-510.73 -187.82)"/><path class="cls-2" d="M907.31,509.81c-39.8-16.12-62.81,28-122,28-75.94,0-106.63-72.66-141-57-34.18,15.59-45.75,106.3-5,144,27.28,25.25,71.31,20.54,95,18,44.24-4.73,50.2-22,97-23,26.84-.57,35.57,4.88,62,0,19.72-3.63,47.92-8.83,57-28C962.12,566.89,939.45,522.84,907.31,509.81Z" transform="translate(-510.73 -187.82)"/><path class="cls-1" d="M823.31,600.81c-44-.45-49.2,21.35-86,24-64.4,4.64-108.89-57.76-120-47-6.74,6.53,4.51,34.41,24.07,51.45,28.77,25.06,68.75,20.81,95,18,44.24-4.73,50.21-22,97-23,26.85-.58,35.57,4.87,62,0,33.45-6.17,58.21-25.16,57-28-1.11-2.62-23.47,10.41-59.07,12.55C860.12,610.81,852.51,601.12,823.31,600.81Z" transform="translate(-510.73 -187.82)"/><path class="cls-1" d="M1025.31,746.81c-7.89-9.75-7.54-19-13-20-7.79-1.44-22.4,14.72-20,26.26,6.19,30.08,130,39.42,138,17,2.78-7.77-7.71-21-10-20.26-1.81.6,2.88,9.68-1,16-8.86,14.41-53.72.56-62-2C1042.45,759.23,1032.83,756.12,1025.31,746.81Z" transform="translate(-510.73 -187.82)"/><path class="cls-2" d="M881.81,267.31a431,431,0,0,1-43,80c-25.67,37.63-42.23,49.07-44,73-3.11,42,42.75,76.62,46,79,42.54,31.26,73,11.06,200,15,128.72,4,197,12,197,12,44.35,5.21,56.59,8.43,71,0,57.11-33.39,56.74-196.31-14-275C1218.39,166.31,1043.89,161.85,881.81,267.31Z" transform="translate(-510.73 -187.82)"/><path class="cls-1" d="M863.31,511.81c-.14.42,27,4.63,51,27a111.17,111.17,0,0,1,18.57,23c3.91,6.43,16.75,33,17.43,77,.88,56.84-34.28,73.33-19.9,107.57,8.68,20.64,28.79,36,30.9,34.43,1.7-1.28-7.72-12.72-13-28-9.55-27.59,1.64-46.72,8-79,1.42-7.21,19.59-87.73-16-130C912,510.24,863.48,511.28,863.31,511.81Z" transform="translate(-510.73 -187.82)"/><path class="cls-3" d="M858.81,424.31c8.67-28.56,23-48.62,30.33-57.2,10.29-12.1,50.87-59.85,107.67-61.8,22.77-.78,20.49,7,60,9,35.1,1.82,44-3.8,71,0,18,2.54,43.12,6.07,63,23,28,23.89,49.89,78,23,112-21.15,26.75-77.72-25.28-119,2-27.35,18.08-28.5,55.11-42,54-15-1.22-8.8-46.47-37-64-25.18-15.64-66.15-2-102,10-29.86,10-46.13,20.5-55,13C849.15,456.15,856.1,433.22,858.81,424.31Z" transform="translate(-510.73 -187.82)"/><path class="cls-4" d="M858.44,429.6c8.67-28.56,23-48.62,30.34-57.21,10.28-12.1,50.86-59.84,107.66-61.79,22.78-.78,20.49,6.95,60,9,35.11,1.82,44-3.8,71,0,18,2.54,43.13,6.07,63,23,38.82,33.06,40.23,104.12,23,112-16.48,7.54-33.27-50.44-95.13-74.79-58.42-23-131.15-5.8-179,25-45.65,29.4-69.26,71.57-80.87,64.79C850.08,464.71,855.57,439.06,858.44,429.6Z" transform="translate(-510.73 -187.82)"/><path class="cls-4" d="M1074.17,409.81c-13.63,0-26-4-34.86-10.49l69.1-50.51c9.19,6.46,14.9,15.49,14.9,25.48C1123.31,393.91,1101.3,409.81,1074.17,409.81Z" transform="translate(-510.73 -187.82)"/><path class="cls-5" d="M858.66,424.62c8.66-28.57,23-48.63,30.33-57.21,10.28-12.1,50.86-59.85,107.67-61.79,22.77-.78,20.49,6.95,60,9,35.1,1.81,44-3.81,71,0,18,2.53,43.12,6.06,63,23,28,23.88,49.88,78,23,112-21.16,26.74-77.72-25.29-119,2-27.35,18.07-28.5,55.1-42,54-15-1.23-8.81-46.48-37-64-25.18-15.65-66.15-2-102,10-29.86,10-46.13,20.49-55,13C849,456.45,856,433.52,858.66,424.62Z" transform="translate(-510.73 -187.82)"/><path class="cls-1" d="M881.76,267.8c-33.64,29.6-52.84,59.4-63.45,79-15.29,28.27-25.57,47.27-23.55,74,3.36,44.25,37.66,72.19,46,79,2.31,1.88,18.71,15.24,22.11,12.19,4.86-4.36-25.33-35-35.56-68.18-19.63-63.69,34.11-131.64,43-143C939.05,213,1055.28,198.64,1054,195c-.81-2.31-45.57,8.64-94,30A523.93,523.93,0,0,0,881.76,267.8Z" transform="translate(-510.73 -187.82)"/><path class="cls-1" d="M887.31,516.81c-1.13,2.53,19.23,14.13,23,16,44,21.92,65.94,32.88,88,35,20.53,2,30.44-1.29,81-14,90.73-22.81,125.53-27.47,125-31-.83-5.5-86.41-1.16-152,6-24,2.63-55.81,6.63-89,2-36.71-5.11-52-9-52-9C898.46,518.55,888.08,515.09,887.31,516.81Z" transform="translate(-510.73 -187.82)"/><path class="cls-4" d="M977.7,410.26c13.62,0,26-4,34.86-10.49l-69.11-50.51c-9.18,6.45-14.89,15.48-14.89,25.48C928.56,394.35,950.56,410.26,977.7,410.26Z" transform="translate(-510.73 -187.82)"/><path class="cls-1" d="M613,559c-4,7.77-11.86,7.5-28,16-14.44,7.61-12.84,10.29-24,16-22.94,11.75-42.76,7.12-43,10-.29,3.41,27,16.14,53,7.47,23-7.68,29.91-27.15,41.56-23.92,10.12,2.81,7.08,18.09,21.47,31.45,16.16,15,42.34,16.47,45,11,2.3-4.73-14.33-11.85-33-35-21.72-26.93-30.44-56-33-55C611.31,537.66,618.1,549.17,613,559Z" transform="translate(-510.73 -187.82)"/></svg>