<svg id="Layer_1" data-name="Layer 1" xmlns="http://www.w3.org/2000/svg" xmlns:xlink="http://www.w3.org/1999/xlink" viewBox="0 0 1928 506"><defs><style>.cls-1,.cls-3,.cls-5{stroke:#020024;stroke-width:8px;}.cls-1,.cls-2,.cls-3,.cls-5{stroke-miterlimit:10;}.cls-1{fill:url(#linear-gradient);}.cls-2,.cls-5{fill:none;}.cls-2{stroke:#000;}.cls-3{fill:#fff;}.cls-4{fill:#020024;}.cls-5{stroke-linecap:round;}</style><linearGradient id="linear-gradient" x1="75.64" y1="626.09" x2="1368.06" y2="-120.09" gradientUnits="userSpaceOnUse"><stop offset="0" stop-color="#090979"/><stop offset="0.21" stop-color="#1cd9ff"/><stop offset="0.51" stop-color="#f3fdff"/></linearGradient></defs><polyline class="cls-1" points="1439.7 370.12 1439.7 502 4 502 4 4 1439.7 4 1439.7 146.65"/><line class="cls-2" x1="1443.74" y1="495.5" x2="1443.74" y2="162"/><line class="cls-2" x1="2.57" y1="489.99" x2="2.5" y2="502"/><path class="cls-3" d="M1419.52,302h1.88C1609.33,305,1918,390.9,1920,549.5,1921.66,684.43,1700.46,797,1426.6,800" transform="translate(4 -298)"/><polygon class="cls-4" points="1576.19 145 1576.19 352 1759.34 248.5 1576.19 145"/><path class="cls-5" d="M1434.69,731" transform="translate(4 -298)"/><line class="cls-5" x1="1438.69" y1="287.93" x2="1438.69" y2="370.12"/><line class="cls-5" x1="1438.69" y1="146.65" x2="1438.69" y2="220.18"/><path class="cls-5" d="M1434.69,444.65" transform="translate(4 -298)"/><line class="cls-5" x1="1438.69" y1="7.36" x2="1438.69" y2="69.04"/><line class="cls-5" x1="1438.69" y1="453.36" x2="1438.69" y2="495.79"/></svg>